<svg width="32" height="32" viewBox="0 0 32 32" fill="none" xmlns="http://www.w3.org/2000/svg">
<path d="M27.9358 4.06412C27.0408 3.17013 25.8275 2.66797 24.5625 2.66797C23.2975 2.66797 22.0842 3.17013 21.1892 4.06412L5.25316 20.0001C4.71121 20.5415 4.33037 21.2229 4.15316 21.9681L2.69316 28.1041C2.65363 28.2703 2.65733 28.4439 2.70392 28.6082C2.75051 28.7726 2.83843 28.9223 2.9593 29.043C3.08017 29.1638 3.22995 29.2515 3.39436 29.2979C3.55877 29.3443 3.73233 29.3478 3.89849 29.3081L10.0332 27.8468C10.7789 27.6698 11.4607 27.289 12.0025 26.7468L27.9358 10.8135C28.8298 9.91844 29.332 8.70515 29.332 7.44012C29.332 6.1751 28.8298 4.96181 27.9358 4.06679M22.6025 5.48012C22.8599 5.22273 23.1654 5.01856 23.5017 4.87926C23.838 4.73996 24.1985 4.66826 24.5625 4.66826C24.9265 4.66826 25.2869 4.73996 25.6232 4.87926C25.9595 5.01856 26.2651 5.22273 26.5225 5.48012C26.7799 5.73751 26.9841 6.04308 27.1234 6.37938C27.2627 6.71568 27.3343 7.07612 27.3343 7.44012C27.3343 7.80413 27.2627 8.16457 27.1234 8.50087C26.9841 8.83717 26.7799 9.14273 26.5225 9.40012L25.3332 10.5855L21.4132 6.66679L22.6025 5.48012ZM19.9998 8.08279L23.9198 12.0001L10.5865 25.3335C10.3065 25.6135 9.95449 25.8095 9.56916 25.9015L5.01449 26.9868L6.09849 22.4321C6.19049 22.0455 6.38782 21.6935 6.66782 21.4135L19.9998 8.08279Z" fill="#8E8E8E"/>
</svg>
