<svg width="32" height="32" viewBox="0 0 32 32" fill="none" xmlns="http://www.w3.org/2000/svg">
<path d="M4 8H6.66667H28" stroke="#8E8E8E" stroke-width="2.5" stroke-linecap="round" stroke-linejoin="round"/>
<path d="M25 8V25.5C25 26.163 24.7291 26.7989 24.2468 27.2678C23.7646 27.7366 23.1106 28 22.4286 28H9.57143C8.88944 28 8.23539 27.7366 7.75315 27.2678C7.27092 26.7989 7 26.163 7 25.5V8M10.8571 8V5.5C10.8571 4.83696 11.1281 4.20107 11.6103 3.73223C12.0925 3.26339 12.7466 3 13.4286 3H18.5714C19.2534 3 19.9075 3.26339 20.3897 3.73223C20.8719 4.20107 21.1429 4.83696 21.1429 5.5V8" stroke="#8E8E8E" stroke-width="2.5" stroke-linecap="round" stroke-linejoin="round"/>
<path d="M13.334 13.668V21.668" stroke="#8E8E8E" stroke-width="2.5" stroke-linecap="round" stroke-linejoin="round"/>
<path d="M18.666 13.668V21.668" stroke="#8E8E8E" stroke-width="2.5" stroke-linecap="round" stroke-linejoin="round"/>
</svg>
