<svg width="32" height="32" viewBox="0 0 32 32" fill="none" xmlns="http://www.w3.org/2000/svg">
<path d="M9.66667 14.9994L16.3333 3C17.3942 3 18.4116 3.42143 19.1618 4.17157C19.9119 4.92172 20.3333 5.93913 20.3333 7L19.1618 13H26.7084C27.095 12.9956 27.4778 13.0753 27.8305 13.2336C28.1832 13.3919 28.4972 13.625 28.7509 13.9167C29.0046 14.2084 29.1918 14.5518 29.2996 14.923C29.4073 15.2942 29.4331 15.6845 29.3751 16.0667L27.3733 27.3994C27.2769 28.0353 26.9539 28.6149 26.4639 29.0314C25.9738 29.4479 25.3498 29.6733 24.7067 29.6661C24.7067 29.6661 17.6667 29.6655 14.3333 29.6661C11 29.6667 9.66667 26.3333 9.66667 26.3333M9.66667 14.9994C9.66667 14.9994 9.66667 20.6056 9.66667 26.3333M9.66667 14.9994H5.66667C4.95942 14.9994 4.28115 15.2803 3.78105 15.7804C3.28095 16.2805 3 16.9588 3 17.6661V26.9994C3 27.7066 3.33291 28.3329 3.83301 28.833C4.61406 29.6141 5.66667 29.6661 5.66667 29.6661C5.66667 29.6661 9.83301 30.333 9.66667 26.3333" stroke="#4561DC" stroke-width="2" stroke-linecap="round" stroke-linejoin="round"/>
</svg>
