<svg width="32" height="32" viewBox="0 0 32 32" fill="none" xmlns="http://www.w3.org/2000/svg">
<path d="M16.0003 17.3327C16.7367 17.3327 17.3337 16.7357 17.3337 15.9993C17.3337 15.263 16.7367 14.666 16.0003 14.666C15.2639 14.666 14.667 15.263 14.667 15.9993C14.667 16.7357 15.2639 17.3327 16.0003 17.3327Z" stroke="#555555" stroke-width="2" stroke-linecap="round" stroke-linejoin="round"/>
<path d="M16.0003 8.00065C16.7367 8.00065 17.3337 7.4037 17.3337 6.66732C17.3337 5.93094 16.7367 5.33398 16.0003 5.33398C15.2639 5.33398 14.667 5.93094 14.667 6.66732C14.667 7.4037 15.2639 8.00065 16.0003 8.00065Z" stroke="#555555" stroke-width="2" stroke-linecap="round" stroke-linejoin="round"/>
<path d="M16.0003 26.6667C16.7367 26.6667 17.3337 26.0697 17.3337 25.3333C17.3337 24.597 16.7367 24 16.0003 24C15.2639 24 14.667 24.597 14.667 25.3333C14.667 26.0697 15.2639 26.6667 16.0003 26.6667Z" stroke="#555555" stroke-width="2" stroke-linecap="round" stroke-linejoin="round"/>
</svg>
