<svg width="405" height="80" viewBox="0 0 405 80" fill="none" xmlns="http://www.w3.org/2000/svg">
<path d="M163.672 25.7188H169.492V45.4453C169.492 50.9531 165.625 54.3906 159.922 54.3906C154.805 54.3906 150.781 51.6953 150.82 46.1094H156.68C156.719 48.3359 158.086 49.6641 160.195 49.6641C162.422 49.6641 163.672 48.2188 163.672 45.4453V25.7188ZM178.984 54H172.656L182.461 25.7188H190L199.766 54H193.477L191.367 47.4766H181.133L178.984 54ZM182.617 42.9062H189.883L186.328 32.0859H186.133L182.617 42.9062ZM202.969 54V25.7188H214.062C220.508 25.7188 224.18 29.3516 224.18 34.9375C224.18 38.8047 222.402 41.6172 219.18 42.9844L225.195 54H218.711L213.32 43.9609H208.828V54H202.969ZM208.828 39.1953H212.969C216.445 39.1953 218.125 37.75 218.125 34.9375C218.125 32.0859 216.445 30.5234 212.969 30.5234H208.828V39.1953ZM245.742 25.7188H251.641V44.0781C251.641 50.2891 246.953 54.3906 239.922 54.3906C232.891 54.3906 228.242 50.2891 228.242 44.0781V25.7188H234.102V43.6094C234.102 46.8516 236.406 49.2344 239.922 49.2344C243.477 49.2344 245.742 46.8516 245.742 43.6094V25.7188Z" fill="#2F44C3"/>
</svg>
