<svg width="32" height="32" viewBox="0 0 32 32" fill="none" xmlns="http://www.w3.org/2000/svg">
<path d="M18.9806 25.3332C20.1339 25.3332 20.7432 26.6985 19.9739 27.5572C19.4737 28.1159 18.8613 28.5629 18.1766 28.8689C17.492 29.1749 16.7505 29.3331 16.0006 29.3332C15.2507 29.3331 14.5092 29.1749 13.8245 28.8689C13.1399 28.5629 12.5275 28.1159 12.0272 27.5572C11.2912 26.7358 11.8166 25.4518 12.8726 25.3425L13.0192 25.3345L18.9806 25.3332ZM16.0006 2.6665C17.8112 2.6665 19.3419 3.8705 19.8339 5.52117L19.8952 5.74917L19.9059 5.8065C21.376 6.63545 22.6287 7.80099 23.5613 9.20757C24.4939 10.6141 25.0799 12.2217 25.2712 13.8985L25.3086 14.2812L25.3339 14.6665V18.5745L25.3619 18.7558C25.5445 19.7383 26.0881 20.6168 26.8859 21.2185L27.1086 21.3745L27.3246 21.5065C28.4712 22.1558 28.0712 23.8612 26.8219 23.9918L26.6672 23.9998H5.33391C3.96325 23.9998 3.48458 22.1812 4.67658 21.5065C5.18462 21.219 5.62358 20.8238 5.96263 20.3486C6.30169 19.8734 6.53263 19.3298 6.63925 18.7558L6.66725 18.5652L6.66858 14.6052C6.74988 12.8637 7.25679 11.1687 8.14496 9.66846C9.03313 8.16827 10.2755 6.90864 11.7632 5.99984L12.0939 5.80517L12.1072 5.74784C12.2953 4.95028 12.7238 4.22972 13.3348 3.68363C13.9457 3.13754 14.7097 2.79227 15.5232 2.6945L15.7659 2.67184L16.0006 2.6665Z" fill="#4561DC"/>
</svg>
