<svg width="32" height="32" viewBox="0 0 32 32" fill="none" xmlns="http://www.w3.org/2000/svg">
<mask id="mask0_744_4677" style="mask-type:luminance" maskUnits="userSpaceOnUse" x="0" y="0" width="32" height="32">
<path d="M32 0H0V32H32V0Z" fill="white"/>
</mask>
<g mask="url(#mask0_744_4677)">
<path d="M31.36 16.3626C31.36 15.2281 31.2582 14.1372 31.0691 13.0898H16V19.279H24.6109C24.24 21.279 23.1128 22.9735 21.4182 24.1081V28.1226H26.5891C29.6146 25.3372 31.36 21.2353 31.36 16.3626Z" fill="#4285F4"/>
<path d="M16.0001 32.001C20.3201 32.001 23.9419 30.5682 26.5891 28.1247L21.4182 24.1101C19.9856 25.0701 18.1528 25.6373 16.0001 25.6373C11.8328 25.6373 8.30558 22.8228 7.04734 19.041H1.7019V23.1865C4.3347 28.4156 9.74559 32.001 16.0001 32.001Z" fill="#34A853"/>
<path d="M7.0472 19.0399C6.7272 18.0799 6.54544 17.0545 6.54544 15.9999C6.54544 14.9453 6.7272 13.9199 7.0472 12.9599V8.81445H1.70176C0.618239 10.9745 0 13.4181 0 15.9999C0 18.5817 0.618239 21.0253 1.70176 23.1853L7.0472 19.0399Z" fill="#FBBC04"/>
<path d="M16.0001 6.36368C18.3491 6.36368 20.4582 7.17088 22.1165 8.75632L26.7056 4.1672C23.9347 1.58544 20.3128 0 16.0001 0C9.74559 0 4.3347 3.58544 1.7019 8.81456L7.04734 12.96C8.30558 9.17824 11.8328 6.36368 16.0001 6.36368Z" fill="#E94235"/>
</g>
</svg>
